<svg xmlns="http://www.w3.org/2000/svg" version="1.1" xmlns:xlink="http://www.w3.org/1999/xlink" xmlns:svgjs="http://svgjs.com/svgjs" width="82.809288mm" height="82.809288mm"><svg xmlns:dc="http://purl.org/dc/elements/1.1/" xmlns:cc="http://creativecommons.org/ns#" xmlns:rdf="http://www.w3.org/1999/02/22-rdf-syntax-ns#" xmlns:svg="http://www.w3.org/2000/svg" xmlns="http://www.w3.org/2000/svg" xmlns:sodipodi="http://sodipodi.sourceforge.net/DTD/sodipodi-0.dtd" xmlns:inkscape="http://www.inkscape.org/namespaces/inkscape" width="82.809288mm" height="82.809288mm" viewBox="0 0 82.809288 82.809288" version="1.1" id="SvgjsSvg1015" sodipodi:docname="favicon.svg" inkscape:version="0.92.5 (2060ec1f9f, 2020-04-08)">
  <defs id="SvgjsDefs1014"></defs>
  <sodipodi:namedview id="SvgjsSodipodi:namedview1013" pagecolor="#ffffff" bordercolor="#666666" borderopacity="1.0" inkscape:pageopacity="0.0" inkscape:pageshadow="2" inkscape:zoom="1.979899" inkscape:cx="259.28517" inkscape:cy="236.46818" inkscape:document-units="mm" inkscape:current-layer="layer1" showgrid="false" fit-margin-top="0" fit-margin-left="0" fit-margin-right="0" fit-margin-bottom="0" inkscape:window-width="2560" inkscape:window-height="1403" inkscape:window-x="0" inkscape:window-y="0" inkscape:window-maximized="1"></sodipodi:namedview>
  <metadata id="SvgjsMetadata1012">
    <rdf:rdf>
      <cc:work rdf:about="">
        <dc:format>image/svg+xml</dc:format>
        <dc:type rdf:resource="http://purl.org/dc/dcmitype/StillImage"></dc:type>
        <dc:title></dc:title>
      </cc:work>
    </rdf:rdf>
  </metadata>
  <g inkscape:label="Layer 1" inkscape:groupmode="layer" id="SvgjsG1011" transform="translate(-109.78583,-368.98821)">
    <rect style="fill:#253882;fill-opacity:1;stroke-width:0.26458332" id="SvgjsRect1010" width="82.809288" height="82.809288" x="109.78583" y="368.98822" ry="23.118814"></rect>
    <g id="SvgjsG1009" transform="matrix(0.35277777,0,0,-0.35277777,177.60542,386.33564)">
      <path d="m 0,0 c -2.285,0 -4.144,1.859 -4.144,4.144 0,2.285 1.859,4.144 4.144,4.144 2.285,0 4.144,-1.859 4.144,-4.144 C 4.144,1.859 2.285,0 0,0 m -18.796,0 c -2.286,0 -4.145,1.859 -4.145,4.144 0,2.285 1.859,4.144 4.145,4.144 2.285,0 4.144,-1.859 4.144,-4.144 C -14.652,1.859 -16.511,0 -18.796,0 m -19.42,0 c -2.285,0 -4.145,1.859 -4.145,4.144 0,2.285 1.86,4.144 4.145,4.144 2.285,0 4.144,-1.859 4.144,-4.144 C -34.072,1.859 -35.931,0 -38.216,0 m -108.259,0 c -2.285,0 -4.144,1.859 -4.144,4.144 0,2.285 1.859,4.144 4.144,4.144 2.285,0 4.144,-1.859 4.144,-4.144 0,-2.285 -1.859,-4.144 -4.144,-4.144 M 0,16.238 c -3.793,0 -7.179,-1.757 -9.398,-4.498 -2.219,2.741 -5.606,4.498 -9.398,4.498 -3.979,0 -7.505,-1.94 -9.71,-4.914 -2.206,2.974 -5.731,4.914 -9.71,4.914 -5.204,0 -9.638,-3.31 -11.34,-7.93 h -85.579 c -1.703,4.62 -6.136,7.93 -11.34,7.93 -6.669,0 -12.094,-5.425 -12.094,-12.094 0,-6.669 5.425,-12.094 12.094,-12.094 4.974,0 9.254,3.02 11.109,7.322 h 86.04 c 1.855,-4.302 6.135,-7.322 11.11,-7.322 3.979,0 7.504,1.94 9.71,4.915 2.205,-2.975 5.731,-4.915 9.71,-4.915 3.792,0 7.179,1.758 9.398,4.498 2.219,-2.74 5.605,-4.498 9.398,-4.498 6.669,0 12.094,5.425 12.094,12.094 0,6.669 -5.425,12.094 -12.094,12.094" style="fill:#f08b03;fill-opacity:1;fill-rule:nonzero;stroke:none" id="SvgjsPath1008" inkscape:connector-curvature="0"></path>
    </g>
    <g id="SvgjsG1007" transform="matrix(0.35277777,0,0,-0.35277777,160.34033,430.29771)">
      <path d="m 0,0 15.918,15.918 v 35.311 h 2.634 v 61.599 H 4.085 V 51.229 H 6.981 V 19.62 L -3.702,8.936 H -33.807 V 10.75 H -66.762 V -2.135 h 32.955 V 0 Z" style="fill:#f08b03;fill-opacity:1;fill-rule:nonzero;stroke:none" id="SvgjsPath1006" inkscape:connector-curvature="0"></path>
    </g>
    <g id="SvgjsG1005" transform="matrix(0.35277777,0,0,-0.35277777,159.54761,433.15687)">
      <path d="M 0,0 H -3.735 V 1.974 H -27.3 v -12.885 h 23.565 v 1.975 h 7.437 l 32.959,32.959 v 35.311 h 2.973 v 61.599 H 25.167 V 59.334 h 2.557 v -31.61 z" style="fill:#f08b03;fill-opacity:1;fill-rule:nonzero;stroke:none" id="SvgjsPath1004" inkscape:connector-curvature="0"></path>
    </g>
    <g id="SvgjsG1003" transform="matrix(0.35277777,0,0,-0.35277777,174.9544,412.22515)">
      <path d="M 0,0 H 2.547 V -31.61 L -42.01,-76.168 h -29.996 l -13.508,13.509 h -10.194 v 1.719 h -51.734 v -12.885 h 51.734 v 2.229 h 6.492 l 13.508,-13.508 h 37.399 l 49.792,49.793 V 0 h 2.983 V 61.599 H 0 Z" style="fill:#f08b03;fill-opacity:1;fill-rule:nonzero;stroke:none" id="SvgjsPath1002" inkscape:connector-curvature="0"></path>
    </g>
    <g id="SvgjsG1001" transform="matrix(0.35277777,0,0,-0.35277777,123.52811,431.09093)">
      <path d="M 0,0 V 113.969 H 87.431 V 86.942 H 31.911 V 65.614 h 52.1 V 39.238 h -52.1 L 31.911,0 Z" style="fill:#ffffff;fill-opacity:1;fill-rule:nonzero;stroke:none" id="SvgjsPath1000" inkscape:connector-curvature="0"></path>
    </g>
  </g>
</svg><style>@media (prefers-color-scheme: light) { :root { filter: none; } }
@media (prefers-color-scheme: dark) { :root { filter: contrast(0.8333333333333334) brightness(1.7); } }
</style></svg>