<?xml version="1.0" encoding="UTF-8"?>
<svg width="1200pt" height="1200pt" version="1.1" viewBox="0 0 1200 1200" xmlns="http://www.w3.org/2000/svg">
 <path d="m58.125 445.88 525 262.5c10.613 5.3477 23.137 5.3477 33.75 0l525-262.5c8.2305-4.2148 14.613-11.324 17.922-19.961 3.3047-8.6367 3.3047-18.191 0-26.828-3.3086-8.6367-9.6914-15.746-17.922-19.961l-525-262.5c-10.613-5.3477-23.137-5.3477-33.75 0l-525 262.5c-8.2305 4.2148-14.613 11.324-17.922 19.961-3.3047 8.6367-3.3047 18.191 0 26.828 3.3086 8.6367 9.6914 15.746 17.922 19.961zm541.88-253.88 441 220.5-441 220.5-441-220.5zm558.38 391.12c4.4492 8.8555 5.2109 19.113 2.1172 28.527-3.0898 9.418-9.7852 17.227-18.617 21.723l-525 262.5c-10.613 5.3477-23.137 5.3477-33.75 0l-525-262.5c-10.918-6.5703-17.754-18.234-18.148-30.973-0.39453-12.734 5.707-24.801 16.199-32.031 10.488-7.2344 23.938-8.6445 35.699-3.7461l508.12 253.88 508.12-253.88c8.8555-4.4492 19.113-5.2109 28.527-2.1172 9.418 3.0898 17.227 9.7852 21.723 18.617zm0 187.5c4.4492 8.8555 5.2109 19.113 2.1172 28.527-3.0898 9.418-9.7852 17.227-18.617 21.723l-525 262.5c-10.613 5.3477-23.137 5.3477-33.75 0l-525-262.5c-10.918-6.5703-17.754-18.234-18.148-30.973-0.39453-12.734 5.707-24.801 16.199-32.031 10.488-7.2344 23.938-8.6445 35.699-3.7461l508.12 253.88 508.12-253.88c8.8555-4.4492 19.113-5.2109 28.527-2.1172 9.418 3.0898 17.227 9.7852 21.723 18.617z" fill="#fff"/>
</svg>
