<svg id="Layer_1" data-name="Layer 1" xmlns="http://www.w3.org/2000/svg" xmlns:xlink="http://www.w3.org/1999/xlink" viewBox="0 0 124.7 71.5"><defs><style>.cls-1{fill:none;}.cls-2{clip-path:url(#clip-path);}.cls-3{clip-path:url(#clip-path-2);}.cls-4{fill:#ed8b22;}.cls-5{fill:#273b81;}</style><clipPath id="clip-path" transform="translate(0 0)"><rect class="cls-1" width="124.7" height="71.49"/></clipPath><clipPath id="clip-path-2" transform="translate(0 0)"><rect class="cls-1" x="0.19" y="0.08" width="124.51" height="71.29"/></clipPath></defs><g class="cls-2"><g class="cls-3"><path class="cls-4" d="M119.92,0a4.78,4.78,0,0,0-3.71,1.78,4.76,4.76,0,0,0-7.55.17,4.75,4.75,0,0,0-8.31,1.19H49.85a4.78,4.78,0,1,0-.09,3.54h50.68a4.76,4.76,0,0,0,8.22,1,4.76,4.76,0,0,0,7.55.17A4.78,4.78,0,1,0,119.92,0M45.37,6.43A1.64,1.64,0,1,1,47,4.79a1.64,1.64,0,0,1-1.63,1.64m59.46,0a1.64,1.64,0,1,1,1.63-1.64,1.64,1.64,0,0,1-1.63,1.64m7.67,0a1.64,1.64,0,1,1,1.63-1.64,1.64,1.64,0,0,1-1.63,1.64m7.42,0a1.64,1.64,0,1,1,1.64-1.64,1.64,1.64,0,0,1-1.64,1.64" transform="translate(0 0)"/><polygon class="cls-4" points="100.59 58.08 106.88 51.78 106.88 37.8 107.92 37.8 107.92 13.4 102.2 13.4 102.2 37.8 103.35 37.8 103.35 50.31 99.13 54.54 21.7 54.54 21.7 53.83 0.03 53.83 0.03 58.93 21.7 58.93 21.7 58.08 100.59 58.08"/><polygon class="cls-4" points="99.7 61.29 95.75 61.29 95.75 60.51 74.08 60.51 74.08 65.61 95.75 65.61 95.75 64.83 101.16 64.83 114.18 51.78 114.18 37.8 115.36 37.8 115.36 13.4 109.64 13.4 109.64 37.8 110.65 37.8 110.65 50.31 99.7 61.29"/><polygon class="cls-4" points="116.95 37.8 117.96 37.8 117.96 50.31 100.36 67.96 71.2 67.96 65.86 62.61 44.52 62.61 44.52 61.93 22.85 61.93 22.85 67.03 44.52 67.03 44.52 66.15 64.4 66.15 69.74 71.5 101.82 71.5 121.49 51.78 121.49 37.8 122.67 37.8 122.67 13.4 116.95 13.4 116.95 37.8"/><polygon class="cls-5" points="0.19 37.31 0.19 13.71 18.25 13.71 18.25 19.31 6.78 19.31 6.78 23.73 17.55 23.73 17.55 29.19 6.78 29.19 6.78 37.31 0.19 37.31"/><path class="cls-5" d="M34.13,33.44H23.6l-1.55,3.87H15l10.56-23.6h6.73L42.8,37.31H35.67ZM28.88,20.32l-3,7.52h6Z" transform="translate(0 0)"/><rect class="cls-5" x="42.16" y="13.71" width="6.63" height="23.6"/><polygon class="cls-5" points="70.72 23.25 64.7 30.4 63.52 30.4 57.63 23.29 57.63 37.31 51.04 37.31 51.04 13.71 58 13.71 64.19 21.7 70.38 13.71 77.31 13.71 77.31 37.31 70.72 37.31 70.72 23.25"/><path class="cls-5" d="M94.06,20.25a8.84,8.84,0,0,0-5.52-1.61c-1.61,0-3.2.5-3.2,1.75,0,1.62,1.59,1.85,3.91,2.09,4.67.5,9.55,2.39,9.55,7.82S93.75,38,88.47,38c-4.23,0-7.26-.71-10.52-4.15l3.66-4.21a9.47,9.47,0,0,0,6.9,2.66c2.18,0,3.7-.78,3.7-2.09S90.86,28.28,88.27,28c-5.14-.47-9.58-1.79-9.58-7.65,0-5,4.87-7.15,9.85-7.15A13.34,13.34,0,0,1,97.35,16Z" transform="translate(0 0)"/><path class="cls-5" d="M.61,47.46v2.72H0V42.32H3.44a2.57,2.57,0,0,1,0,5.14Zm0-4.58v4H3.44a2,2,0,0,0,0-4Z" transform="translate(0 0)"/><path class="cls-5" d="M21.26,50.18h-.79l-2.71-3H15.62v3H15V42.32h3.45A2.42,2.42,0,0,1,21,44.77a2.32,2.32,0,0,1-2.54,2.4Zm-5.64-3.55H18.4a1.75,1.75,0,0,0,2-1.87,1.82,1.82,0,0,0-1.92-1.88H15.62Z" transform="translate(0 0)"/><path class="cls-5" d="M37.76,46.26a4,4,0,1,1-7.91,0,3.8,3.8,0,0,1,4-4,3.79,3.79,0,0,1,3.95,4.06m-7.31,0a3.37,3.37,0,1,0,6.73,0,3.37,3.37,0,1,0-6.73,0" transform="translate(0 0)"/><path class="cls-5" d="M51.8,42.85h-3v-.53h3.6v4.9a2.93,2.93,0,0,1-3.11,3.09,3,3,0,0,1-3.09-3.09h.56a2.44,2.44,0,0,0,2.53,2.52,2.34,2.34,0,0,0,2.51-2.52Z" transform="translate(0 0)"/><polygon class="cls-5" points="62.62 45.95 67.22 45.95 67.22 46.5 62.62 46.5 62.62 49.6 67.57 49.6 67.57 50.18 62.03 50.18 62.03 42.32 67.44 42.32 67.44 42.89 62.62 42.89 62.62 45.95"/><path class="cls-5" d="M83.09,49.09a4,4,0,0,1-2.86,1.18,3.8,3.8,0,0,1-4-4,3.84,3.84,0,0,1,4-4.07,4,4,0,0,1,2.86,1.18l-.41.36a3.42,3.42,0,0,0-2.45-1,3.47,3.47,0,0,0,0,6.94,3.53,3.53,0,0,0,2.46-1Z" transform="translate(0 0)"/><polygon class="cls-5" points="94.1 42.87 91.27 42.87 91.27 42.33 97.54 42.33 97.54 42.87 94.71 42.87 94.71 50.18 94.1 50.18 94.1 42.87"/></g></g></svg>