<svg xmlns="http://www.w3.org/2000/svg" version="1.1" xmlns:xlink="http://www.w3.org/1999/xlink" xmlns:svgjs="http://svgjs.com/svgjs" width="133.57001" height="101.49"><svg id="SvgjsSvg1010" viewBox="0 0 133.57001 101.49" version="1.1" sodipodi:docname="Fieldmark-favicon.svg" width="133.57001" height="101.49" inkscape:version="1.1.2 (0a00cf5339, 2022-02-04)" xmlns:inkscape="http://www.inkscape.org/namespaces/inkscape" xmlns:sodipodi="http://sodipodi.sourceforge.net/DTD/sodipodi-0.dtd" xmlns="http://www.w3.org/2000/svg" xmlns:svg="http://www.w3.org/2000/svg">
  <sodipodi:namedview id="SvgjsSodipodi:namedview1009" pagecolor="#ffffff" bordercolor="#666666" borderopacity="1.0" inkscape:pageshadow="2" inkscape:pageopacity="0.0" inkscape:pagecheckerboard="0" showgrid="false" fit-margin-top="10" fit-margin-left="10" fit-margin-right="10" fit-margin-bottom="10" inkscape:zoom="3.5167955" inkscape:cx="18.34056" inkscape:cy="65.116097" inkscape:window-width="1920" inkscape:window-height="1043" inkscape:window-x="3840" inkscape:window-y="0" inkscape:window-maximized="1" inkscape:current-layer="Layer_1"></sodipodi:namedview>
  <defs id="SvgjsDefs1008">
    <style id="SvgjsStyle1007">.cls-1{fill:#691;}.cls-2{fill:#a4a4a4;}.cls-3{fill:#5c5a5a;}</style>
  </defs>
  <g id="SvgjsG1006" transform="translate(-8.215,-24.255)">
    <path class="cls-1" d="m 104.385,115.735 27.4,-41.92 v 36.04 c 0,3.24 -2.63,5.87 -5.87,5.87 h -21.52 z" id="SvgjsPath1005"></path>
    <path class="cls-1" d="m 69.415,115.735 h 24.21 c 1.99,0 3.85,-1 4.93,-2.67 l 32.28,-49.39 c 0.62,-0.95 0.95,-2.05 0.95,-3.18 v -20.33 c 0,-3.26 -2.65,-5.91 -5.91,-5.91 h -3.21 l -53.26,81.49 z" id="SvgjsPath1004"></path>
    <path class="cls-1" d="m 34.435,115.735 h 24.28 c 1.95,0 3.76,-0.98 4.83,-2.61 l 51.55,-78.87 h -24.21 c -1.99,0 -3.84,1 -4.93,2.67 l -51.51,78.82 z" id="SvgjsPath1003"></path>
    <path class="cls-3" d="m 27.315,115.735 2.13,-3.26 12.86,-19.67 h -24.09 v 17.07 c 0,3.24 2.62,5.86 5.86,5.86 z" id="SvgjsPath1002"></path>
    <polygon class="cls-3" points="31.29,83.65 59.52,83.65 74.51,60.71 31.29,60.71 " id="SvgjsPolygon1001" transform="translate(-13.075,2.815)"></polygon>
    <path class="cls-3" d="m 80.575,34.255 h -56.48 c -3.25,0 -5.88,2.63 -5.88,5.88 v 17.05 h 47.37 z" id="SvgjsPath1000"></path>
  </g>
</svg><style>@media (prefers-color-scheme: light) { :root { filter: none; } }
</style></svg>