<?xml version="1.0" standalone="no"?>
<!DOCTYPE svg PUBLIC "-//W3C//DTD SVG 20010904//EN"
 "http://www.w3.org/TR/2001/REC-SVG-20010904/DTD/svg10.dtd">
<svg version="1.0" xmlns="http://www.w3.org/2000/svg"
 width="720.000000pt" height="720.000000pt" viewBox="0 0 720.000000 720.000000"
 preserveAspectRatio="xMidYMid meet">
<metadata>
Created by potrace 1.14, written by Peter Selinger 2001-2017
</metadata>
<g transform="translate(0.000000,720.000000) scale(0.100000,-0.100000)"
fill="#000000" stroke="none">
<path d="M0 3600 l0 -3600 3600 0 3600 0 0 3600 0 3600 -3600 0 -3600 0 0
-3600z m2834 1535 c55 -26 101 -69 90 -86 -3 -5 0 -9 6 -9 7 0 10 -7 6 -15 -5
-13 146 -15 1263 -15 l1268 0 29 45 c19 31 33 44 43 40 9 -3 12 -3 9 1 -14 13
54 60 72 49 6 -3 10 -1 10 4 0 7 23 11 60 10 33 -1 60 -6 60 -11 0 -5 5 -6 10
-3 13 8 80 -32 80 -48 0 -6 -12 0 -27 14 l-28 24 24 -27 c13 -15 27 -25 31
-23 5 3 20 -1 35 -9 28 -15 23 -26 -8 -20 -11 1 -16 0 -12 -4 3 -3 17 -7 30
-8 18 -1 22 3 19 19 -5 29 72 97 96 82 5 -3 11 -1 15 5 8 13 96 13 132 -1 15
-5 36 -20 46 -32 10 -12 15 -15 11 -7 -4 8 3 5 15 -7 25 -26 46 -30 54 -9 3 7
29 25 58 40 61 30 158 37 179 12 6 -8 17 -13 24 -10 15 6 76 -44 76 -63 0 -8
4 -12 8 -9 25 15 65 -155 45 -187 -4 -7 -8 -18 -9 -25 -2 -8 -10 -22 -20 -33
-9 -10 -13 -19 -8 -19 5 0 -11 -18 -35 -40 -46 -41 -75 -54 -50 -22 8 10 3 7
-10 -8 -22 -22 -32 -25 -97 -25 -57 0 -76 4 -93 19 -12 11 -21 16 -21 12 0 -4
-15 4 -32 17 -31 23 -73 33 -62 16 10 -17 -74 -60 -127 -66 -61 -6 -143 12
-133 29 4 6 3 8 -3 5 -14 -9 -65 32 -57 45 4 6 2 8 -4 4 -6 -3 -13 -2 -17 4
-4 6 -17 -2 -30 -19 -29 -34 -90 -65 -111 -57 -9 3 -12 1 -9 -4 4 -6 -15 -10
-49 -10 -33 0 -56 4 -56 11 0 5 -4 7 -10 4 -13 -8 -66 21 -74 40 -3 10 -11 13
-18 9 -7 -4 -10 -4 -7 0 4 4 -4 18 -17 31 -24 25 -34 62 -12 49 7 -5 8 -3 3 5
-5 9 -10 10 -18 2 -8 -8 -376 -11 -1267 -11 l-1257 0 -32 -46 c-33 -45 -33
-45 -54 -27 -18 15 -20 15 -8 1 16 -21 6 -39 -16 -31 -10 4 -14 2 -10 -4 10
-15 -47 -33 -102 -32 -52 1 -113 20 -119 37 -2 8 3 10 15 5 10 -3 15 -3 12 1
-12 13 -50 16 -43 3 4 -7 -1 -4 -11 5 -16 15 -16 19 -5 35 12 15 12 16 0 6
-21 -19 -28 -16 -44 16 -12 22 -12 31 -3 40 9 10 9 12 -2 9 -20 -4 -35 52 -27
105 8 54 52 126 97 157 18 13 29 17 24 9 -6 -10 -3 -10 11 2 43 36 126 38 198
4z m2194 -635 c113 -19 278 -97 276 -131 -1 -14 -140 -199 -149 -199 -1 0 -34
15 -71 33 -65 30 -75 32 -184 32 -96 0 -120 -3 -143 -19 -52 -35 -44 -105 15
-134 14 -7 75 -19 135 -27 194 -27 293 -65 379 -147 74 -70 98 -129 99 -243 0
-79 -3 -97 -28 -147 -75 -152 -245 -231 -502 -231 -146 0 -223 15 -320 63 -59
28 -175 122 -175 141 0 6 39 54 86 108 l87 99 46 -36 c80 -61 176 -92 286 -92
88 0 135 13 169 46 36 37 34 75 -4 108 -37 30 -75 42 -195 56 -303 36 -428
132 -442 337 -8 112 12 175 78 247 57 63 127 101 233 127 81 20 230 24 324 9z
m812 -600 l0 -600 -25 0 -25 0 -1 -332 c-1 -183 -1 -339 0 -346 3 -18 -70 -92
-83 -85 -6 3 -8 2 -3 -2 10 -11 -63 -86 -76 -78 -6 3 -7 2 -4 -4 7 -11 -66
-86 -76 -78 -4 3 -5 2 -2 -2 3 -4 -11 -24 -32 -45 l-37 -38 -1963 0 c-1956 0
-1963 0 -1963 -20 0 -20 -7 -20 -530 -20 l-530 0 0 125 0 125 526 0 c517 0
526 0 531 -20 5 -20 14 -20 1932 -20 l1926 0 105 105 c93 93 135 128 114 93
-4 -7 -3 -8 5 -4 6 4 8 12 5 18 -4 6 0 15 7 20 11 8 10 9 -3 4 -17 -5 -18 14
-18 299 l0 305 -30 0 c-16 0 -30 5 -30 11 0 5 6 7 13 3 10 -6 10 -4 0 7 -10
10 -13 142 -13 589 0 317 3 580 7 583 3 4 66 7 140 7 l133 0 0 -600z m368 -2
l2 -598 -30 0 -30 0 0 -340 c0 -187 0 -343 1 -346 3 -15 -87 -95 -102 -91 -11
3 -15 -1 -12 -12 5 -21 -51 -75 -70 -68 -10 4 -13 0 -10 -11 5 -22 -51 -77
-70 -69 -10 4 -13 0 -10 -11 5 -22 -51 -77 -70 -69 -10 4 -13 0 -10 -11 5 -22
-51 -77 -70 -69 -10 4 -13 0 -10 -11 5 -22 -51 -77 -70 -69 -10 4 -13 0 -10
-11 5 -22 -51 -77 -70 -69 -10 4 -13 0 -10 -11 2 -10 -9 -29 -26 -46 -20 -19
-31 -25 -31 -15 0 10 -2 11 -8 2 -5 -9 -44 -12 -135 -10 -126 2 -127 2 -127
-20 l0 -23 -535 0 -535 0 0 120 0 120 536 0 c467 0 535 -2 531 -15 -5 -12 12
-15 105 -17 l111 -3 259 259 c143 143 265 267 271 277 9 12 11 102 9 328 l-3
311 -24 0 -24 0 -1 593 c0 326 3 597 7 601 4 4 66 6 138 4 l130 -3 3 -597z
m362 2 c0 -475 -3 -601 -12 -599 -51 6 -48 26 -48 -346 l0 -346 -32 -32 c-18
-18 -40 -32 -48 -32 -8 0 -15 -7 -15 -15 0 -19 -46 -65 -65 -65 -8 0 -15 -7
-15 -15 0 -19 -46 -65 -65 -65 -8 0 -15 -7 -15 -15 0 -19 -46 -65 -65 -65 -8
0 -15 -7 -15 -15 0 -19 -46 -65 -65 -65 -8 0 -15 -7 -15 -15 0 -19 -46 -65
-65 -65 -8 0 -15 -7 -15 -15 0 -8 -11 -26 -25 -40 -14 -14 -32 -25 -40 -25 -8
0 -15 -7 -15 -15 0 -19 -46 -65 -65 -65 -8 0 -15 -7 -15 -15 0 -19 -46 -65
-65 -65 -8 0 -15 -7 -15 -15 0 -8 -11 -26 -25 -40 -14 -14 -32 -25 -40 -25 -8
0 -15 -7 -15 -15 0 -19 -46 -65 -65 -65 -8 0 -15 -7 -15 -15 0 -8 -18 -34 -41
-57 l-41 -43 -794 0 -794 0 -128 130 -128 130 -494 0 c-272 0 -498 0 -502 0
-4 0 -8 -8 -8 -18 0 -16 -34 -17 -532 -19 l-533 -3 0 120 0 120 535 0 c499 -1
535 -2 535 -18 0 -16 35 -17 527 -15 l527 3 134 -135 134 -135 724 0 c464 0
723 -3 719 -10 -3 -5 194 191 439 436 245 245 449 443 455 440 5 -4 13 -2 16
4 4 6 1 9 -7 8 -17 -4 -15 -25 -17 330 l-1 302 -25 0 -24 0 -1 593 c0 326 3
596 7 600 3 4 66 7 140 7 l133 0 0 -600z m-5180 450 l0 -140 -285 0 -285 0 0
-110 0 -110 265 0 265 0 0 -135 0 -135 -265 0 -265 0 0 -200 0 -200 -165 0
-165 0 0 585 0 585 450 0 450 0 0 -140z m935 -402 l240 -536 3 539 2 539 165
0 165 0 0 -585 0 -585 -326 2 -327 3 -36 92 -36 93 -262 0 -261 0 -38 -95 -37
-95 -174 0 c-95 0 -173 3 -173 6 0 6 507 1139 517 1157 2 4 80 6 171 5 l167
-3 240 -537z m1187 347 c81 -104 151 -191 155 -192 5 -2 76 85 158 192 l150
194 173 1 172 0 0 -585 0 -585 -165 0 -165 0 -2 342 -3 343 -145 -173 c-130
-154 -148 -172 -176 -172 -27 0 -45 18 -175 175 l-144 176 -3 -346 -2 -345
-165 0 -165 0 0 578 c0 318 3 582 7 586 4 3 83 5 177 4 l170 -3 148 -190z
m-1303 -1226 c94 -21 144 -89 145 -195 0 -68 -32 -138 -78 -167 -96 -63 -237
-32 -285 62 -73 142 9 302 159 310 8 0 35 -4 59 -10z m-1488 -22 c66 -44 76
-139 19 -195 -33 -34 -65 -42 -161 -42 l-69 0 0 -65 c0 -51 -3 -65 -15 -65
-13 0 -15 28 -15 195 l0 195 104 0 c91 0 107 -3 137 -23z m750 0 c85 -57 60
-195 -38 -213 l-33 -6 66 -72 c52 -56 63 -72 49 -75 -12 -2 -41 23 -87 73 -69
75 -70 76 -119 76 l-49 0 0 -75 c0 -68 -2 -75 -20 -75 -19 0 -20 7 -20 195 l0
195 109 0 c96 0 112 -3 142 -23z m1609 -124 c0 -129 -3 -152 -20 -180 -69
-113 -264 -74 -282 56 -5 42 20 35 32 -8 18 -69 91 -105 165 -81 62 21 75 54
75 202 l0 127 -72 3 c-46 2 -73 7 -76 16 -3 9 19 12 87 12 l91 0 0 -147z m750
132 c0 -12 -20 -15 -120 -15 l-120 0 0 -75 0 -75 115 0 c96 0 115 -3 115 -15
0 -12 -19 -15 -115 -15 l-115 0 0 -75 0 -75 125 0 c104 0 125 -2 125 -15 0
-13 -22 -15 -140 -15 l-140 0 0 195 0 195 135 0 c113 0 135 -2 135 -15z m730
-5 c43 -22 55 -36 41 -44 -5 -4 -26 4 -47 16 -50 29 -126 30 -174 2 -56 -33
-80 -77 -80 -149 0 -72 24 -116 80 -149 47 -28 126 -26 174 3 20 12 40 20 46
16 32 -20 -62 -65 -135 -65 -123 0 -196 73 -196 195 0 84 39 151 106 181 46
20 139 17 185 -6z m770 5 c0 -12 -14 -15 -70 -15 l-70 0 0 -180 c0 -173 -1
-180 -20 -180 -19 0 -20 7 -20 180 l0 180 -70 0 c-56 0 -70 3 -70 15 0 13 24
15 160 15 136 0 160 -2 160 -15z"/>
<path d="M6358 5133 c7 -3 16 -2 19 1 4 3 -2 6 -13 5 -11 0 -14 -3 -6 -6z"/>
<path d="M6566 5092 c-2 -4 4 -8 14 -8 10 0 16 4 14 8 -3 4 -9 8 -14 8 -5 0
-11 -4 -14 -8z"/>
<path d="M2880 5086 c0 -2 7 -7 16 -10 8 -3 12 -2 9 4 -6 10 -25 14 -25 6z"/>
<path d="M2725 5030 c-3 -5 -3 -10 2 -11 4 -1 -3 -4 -17 -8 -14 -5 -31 -3 -40
3 -13 9 -13 9 -2 -5 10 -13 9 -19 -3 -29 -24 -20 -19 -83 8 -107 12 -11 30
-23 40 -26 25 -9 68 9 96 41 18 21 22 23 17 7 -6 -16 -5 -17 5 -8 9 9 9 16 1
25 -6 8 -9 26 -8 40 2 15 0 25 -5 23 -4 -3 -11 0 -15 6 -3 6 -22 17 -41 25
-18 8 -31 19 -28 24 3 6 4 10 1 10 -3 0 -8 -4 -11 -10z"/>
<path d="M5684 5025 c-5 -12 -9 -13 -21 -4 -8 7 -13 8 -11 2 2 -6 -8 -19 -22
-31 -31 -25 -34 -90 -7 -120 47 -52 146 -21 147 45 0 12 5 25 11 29 14 8 -29
50 -66 64 -15 6 -23 14 -20 20 3 5 4 10 0 10 -3 0 -8 -7 -11 -15z"/>
<path d="M6111 5026 c-7 -8 -27 -13 -51 -12 -23 1 -36 -2 -33 -8 4 -6 -1 -7
-13 -2 -10 4 -15 4 -12 0 4 -3 -1 -23 -12 -44 -14 -28 -16 -40 -7 -49 6 -6 8
-11 3 -11 -4 0 0 -7 8 -16 9 -8 13 -20 10 -26 -4 -6 -2 -8 4 -5 15 10 43 -3
35 -17 -4 -6 -8 -17 -9 -24 -2 -10 1 -10 11 -2 8 7 13 15 12 18 -2 8 7 12 24
12 5 0 7 -5 3 -12 -4 -7 -3 -8 5 -4 6 4 9 11 6 16 -5 8 19 22 40 24 6 1 10 31
11 67 1 53 -2 66 -14 65 -8 0 -17 6 -19 14 -4 13 -3 13 6 0 8 -12 10 -11 8 8
-2 26 -1 26 -16 8z"/>
<path d="M6415 5011 c-11 -5 -23 -7 -27 -4 -5 2 -8 -2 -8 -9 0 -10 -3 -9 -11
2 -8 12 -9 10 -4 -7 3 -12 0 -27 -8 -34 -20 -19 -2 -83 26 -98 20 -10 20 -10
-6 -6 -15 2 -25 0 -23 -4 3 -4 31 -7 61 -6 42 2 62 8 80 25 27 26 37 74 19 98
-8 11 -9 21 -3 29 7 7 6 14 -2 19 -8 5 -9 3 -4 -6 8 -12 -9 -11 -57 4 -7 3
-22 1 -33 -3z"/>
<path d="M6536 4998 c3 -5 10 -6 15 -3 13 9 11 12 -6 12 -8 0 -12 -4 -9 -9z"/>
<path d="M5446 4988 c3 -5 10 -6 15 -3 13 9 11 12 -6 12 -8 0 -12 -4 -9 -9z"/>
<path d="M2907 4977 c-3 -8 1 -14 8 -14 7 0 11 6 8 14 -3 7 -6 13 -8 13 -2 0
-5 -6 -8 -13z"/>
<path d="M6326 4981 c-4 -5 -2 -12 3 -15 5 -4 12 -2 15 3 4 5 2 12 -3 15 -5 4
-12 2 -15 -3z"/>
<path d="M6335 4869 c-4 -6 -5 -12 -2 -15 2 -3 7 2 10 11 7 17 1 20 -8 4z"/>
<path d="M6518 4862 c3 -9 1 -13 -5 -9 -5 3 -10 0 -10 -8 0 -17 14 -10 26 14
7 13 6 18 -4 18 -7 0 -11 -7 -7 -15z"/>
<path d="M6136 4828 c3 -5 10 -6 15 -3 13 9 11 12 -6 12 -8 0 -12 -4 -9 -9z"/>
<path d="M5645 4810 c-3 -6 1 -7 9 -4 18 7 21 14 7 14 -6 0 -13 -4 -16 -10z"/>
<path d="M5764 4788 c-4 -7 -4 -10 1 -6 4 4 14 3 21 -3 9 -7 14 -6 20 3 4 7 4
10 -1 6 -4 -4 -14 -3 -21 3 -9 7 -14 6 -20 -3z"/>
<path d="M6296 4790 c5 -8 9 -18 9 -22 0 -3 3 -9 7 -13 3 -4 5 0 4 9 -1 9 -8
22 -16 29 -10 10 -11 9 -4 -3z"/>
<path d="M5774 3332 c-1 -15 1 -21 3 -14 3 6 9 9 15 6 6 -4 5 2 -1 15 -15 27
-16 27 -17 -7z"/>
<path d="M5959 2593 c-13 -16 -12 -17 4 -4 9 7 17 15 17 17 0 8 -8 3 -21 -13z"/>
<path d="M5879 2513 c-13 -16 -12 -17 4 -4 9 7 17 15 17 17 0 8 -8 3 -21 -13z"/>
<path d="M5799 2433 c-13 -16 -12 -17 4 -4 16 13 21 21 13 21 -2 0 -10 -8 -17
-17z"/>
<path d="M5719 2353 c-13 -16 -12 -17 4 -4 16 13 21 21 13 21 -2 0 -10 -8 -17
-17z"/>
<path d="M5639 2273 c-13 -16 -12 -17 4 -4 16 13 21 21 13 21 -2 0 -10 -8 -17
-17z"/>
<path d="M5559 2193 c-13 -16 -12 -17 4 -4 16 13 21 21 13 21 -2 0 -10 -8 -17
-17z"/>
<path d="M5203 2115 c0 -8 4 -12 9 -9 5 3 6 10 3 15 -9 13 -12 11 -12 -6z"/>
<path d="M5479 2113 c-13 -16 -12 -17 4 -4 16 13 21 21 13 21 -2 0 -10 -8 -17
-17z"/>
<path d="M6282 2594 c-7 -8 -8 -14 -3 -14 10 0 25 19 20 25 -2 1 -10 -3 -17
-11z"/>
<path d="M6202 2514 c-7 -8 -8 -14 -3 -14 10 0 25 19 20 25 -2 1 -10 -3 -17
-11z"/>
<path d="M6122 2434 c-7 -8 -8 -14 -3 -14 10 0 25 19 20 25 -2 1 -10 -3 -17
-11z"/>
<path d="M6042 2354 c-7 -8 -8 -14 -3 -14 10 0 25 19 20 25 -2 1 -10 -3 -17
-11z"/>
<path d="M5962 2274 c-7 -8 -8 -14 -3 -14 10 0 25 19 20 25 -2 1 -10 -3 -17
-11z"/>
<path d="M5882 2194 c-7 -8 -8 -14 -3 -14 10 0 25 19 20 25 -2 1 -10 -3 -17
-11z"/>
<path d="M5802 2114 c-7 -8 -8 -14 -3 -14 10 0 25 19 20 25 -2 1 -10 -3 -17
-11z"/>
<path d="M5722 2034 c-7 -8 -8 -14 -3 -14 10 0 25 19 20 25 -2 1 -10 -3 -17
-11z"/>
<path d="M3780 1966 c0 -2 8 -10 18 -17 15 -13 16 -12 3 4 -13 16 -21 21 -21
13z"/>
<path d="M5642 1954 c-7 -8 -8 -14 -3 -14 10 0 25 19 20 25 -2 1 -10 -3 -17
-11z"/>
<path d="M3860 1886 c0 -2 8 -10 18 -17 15 -13 16 -12 3 4 -13 16 -21 21 -21
13z"/>
<path d="M5562 1874 c-7 -8 -8 -14 -3 -14 10 0 25 19 20 25 -2 1 -10 -3 -17
-11z"/>
<path d="M3940 1806 c0 -2 8 -10 18 -17 15 -13 16 -12 3 4 -13 16 -21 21 -21
13z"/>
<path d="M5484 1774 c-18 -14 -18 -15 4 -4 12 6 22 13 22 15 0 8 -5 6 -26 -11z"/>
<path d="M1902 4130 c-6 -14 -37 -94 -71 -178 -34 -84 -61 -154 -61 -157 0 -3
66 -5 146 -5 113 0 145 3 141 13 -68 172 -131 325 -137 337 -7 12 -10 10 -18
-10z"/>
<path d="M2103 3039 c-79 -24 -124 -113 -104 -205 29 -130 180 -177 272 -85
80 80 71 205 -21 273 -30 22 -103 31 -147 17z"/>
<path d="M510 2939 l0 -101 89 4 c78 3 93 6 115 27 33 31 41 70 22 114 -20 48
-41 57 -140 57 l-86 0 0 -101z"/>
<path d="M1260 2950 l0 -90 90 0 c83 0 93 2 115 25 41 40 29 121 -22 144 -13
6 -60 11 -103 11 l-80 0 0 -90z"/>
</g>
</svg>
